<svg xmlns="http://www.w3.org/2000/svg" viewBox="0 0 253.09 162.61"><defs><style>.cls-1{fill:#fff;}</style></defs><g id="Layer_2" data-name="Layer 2"><g id="Traced"><g id="Dark"><path class="cls-1" d="M0,3.92.48,157.38c52.85,11.36,126.19,10.53,128.62-69.09-.26-9.93,1.31-20.36-7.09-44.11,0,0-.12-1.75-4.76-.43s-15.57,10.77-16.89,22.86a74.4,74.4,0,0,1,1.49,18.71c.42,22.88-10.12,44.94-29.81,47.86-15.9,3.31-37.76,2.48-46-2.15L25.67,30.5S35.44,27,55,28.85c0,0,8.78-14.41,21.2-24.68C57-2.92,11.49,1.08,0,3.92Z"/><path class="cls-1" d="M147.72,3.45C70.39-15.84,38.56,71,66.16,120.43,74.82,119.87,86,107.58,85.8,101a106,106,0,0,1-1.65-17.79C84.1,79,83.48,63,91.23,50.06c5.44-9.06,13-20.92,37.72-19.93a21.12,21.12,0,0,1,3-7.74C135.7,15.14,138.17,12.34,147.72,3.45Z"/><path class="cls-1" d="M176.27,49.57c8.2,15.78,9.22,46.64-2.63,63.24.31,10.48,13.82,16.3,22.39,13.4,16.5-22.36,16.35-61.83,4.84-86.31C192.5,34.53,178.35,40.74,176.27,49.57Z"/><path class="cls-1" d="M248.85,51.21c.58-46.29-66.59-71.75-100.14-30.3-13.12,15.18-17.39,56.33,16.59,67a3.08,3.08,0,0,0,2.69.22c1.18-.68,1.15-2.67,1.11-4.4-.16-5.62-.57-9.8-.83-12.35-.44-4.41-.39-5.38-1.07-7.44-.54-1.63-.81-1.8-2-4.85A32.09,32.09,0,0,1,163,52.52a17.56,17.56,0,0,1,.59-7.53,24.11,24.11,0,0,1,4.69-9,27,27,0,0,1,8.15-7.33c3.94-2.25,7.37-2.79,11.53-3.46,3.82-.6,7-1.1,11-.41A26.07,26.07,0,0,1,210,29.71c9.82,7.22,11.53,19.26,11.84,21.83Z"/><path class="cls-1" d="M222.17,74.16c3.47,1,18.91,5.75,26.64,20.76,4.73,9.18,4.39,18,4.18,22.25-.6,12-5.58,22-8.64,25.73-26.07,31.71-112.77,27.23-111.12-29.65l27.45.22a26.5,26.5,0,0,0,5.3,14.45c4.44,5.79,10.08,7.94,13.44,9.16,8.65,3.16,16.16,1.91,22.81.81,4.67-.77,9.86-1.69,15.35-5.34,3-2,6.38-4.3,8.17-8.86A16.65,16.65,0,0,0,219.53,104C220.46,99.64,221.28,94.65,222.17,74.16Z"/><path class="cls-1" d="M125.74,140.31c-5,6.77-9.16,13-16.8,17.71,7.53,5.71,24.13,4.41,32.28,1.4C134.4,155,129.09,146.79,125.74,140.31Z"/></g></g></g></svg>