<svg xmlns="http://www.w3.org/2000/svg" viewBox="0 0 261.5 164.38"><defs><style>.cls-1,.cls-2{fill:#231f20;stroke:#fff;stroke-width:5px;}.cls-2{stroke-miterlimit:10;}</style></defs><g id="Layer_2" data-name="Layer 2"><g id="Typed"><g id="Version_1" data-name="Version 1"><g id="Light"><path class="cls-1" d="M139.46,134.57a37.73,37.73,0,0,1-16-4.09,67.64,67.64,0,0,1-23.86,20.64c11,6.85,24.56,10.76,40.73,10.76a85,85,0,0,0,27.67-4.35C154.78,153,145.31,145,139.46,134.57Z"/><path class="cls-2" d="M138.52,80.25c0,19.37-5.26,36.73-15,50.23a67.64,67.64,0,0,1-23.86,20.64c-10.54,5.48-23,8.52-37.14,8.52H2.5V4.75H63.92c14.19,0,26.83,2.94,37.49,8.4A67.62,67.62,0,0,0,79.05,35.07,45.89,45.89,0,0,0,61.3,31.8H36V132.58H61.11a45.9,45.9,0,0,0,17.34-3.1c13-5.25,20.71-16.8,23.85-32a85,85,0,0,0,1.63-17.16,69.1,69.1,0,0,0-1.62-15.21c2.81-15.34,10-26.94,22.24-32.21C133.55,45.34,138.52,61.44,138.52,80.25Z"/><path class="cls-2" d="M216.57,81.66a100.14,100.14,0,0,1-2,20.06,79.2,79.2,0,0,1-16.11,34.88c-13.77-.15-23.45-4.45-28.62-13.79,6.9-7.88,10.5-19,11.68-31.26.3-3.09.44-6.26.44-9.46,0-9.74-1.32-18.79-4.16-26.52a45.43,45.43,0,0,0-5.32-10.45c0-.37,0-.74,0-1.13,0-11,8.2-16.61,21.8-16.61,1.84,0,3.55.09,5.15.25,8.67,10.7,14.3,24.43,16.31,40.43A107,107,0,0,1,216.57,81.66Z"/><path class="cls-2" d="M259,114.15c0,28.28-21.4,47.68-62.34,47.68a87.84,87.84,0,0,1-28.61-4.3c-13.27-4.56-22.74-12.55-28.59-23a56.13,56.13,0,0,1-6.54-20.33h33.75a32.25,32.25,0,0,0,3.19,8.57c5.17,9.34,14.85,13.64,28.62,13.79h.8c17.88,0,25.53-7.06,25.53-18.4,0-7.45-2.61-12.41-10.22-16.49a100.14,100.14,0,0,0,2-20.06,107,107,0,0,0-.84-13.6C250.87,78.7,259,94.34,259,114.15Z"/><path class="cls-2" d="M168.6,6.5c-13.09,4.5-22.15,12.62-26.77,23.27h-.72a41.41,41.41,0,0,0-16.56,3.15c-12.25,5.27-19.43,16.87-22.24,32.21a90.56,90.56,0,0,0-1.39,16.4,88.51,88.51,0,0,0,1.38,16c-3.14,15.19-10.87,26.74-23.85,32-8-13.18-12.12-29.51-12.12-47.29s4.41-34,12.72-47.12a67.62,67.62,0,0,1,22.36-21.92C112.7,6.34,126.51,2.5,142.54,2.5A82.43,82.43,0,0,1,168.6,6.5Z"/><path class="cls-2" d="M254.86,47.27H221.12c-1.47-8.66-6-18-21.7-19.64-1.6-.16-3.31-.25-5.15-.25-13.6,0-21.8,5.62-21.8,16.61,0,.39,0,.76,0,1.13a12.79,12.79,0,0,0,5.32,10.45C180.66,63.3,182,72.35,182,82.09c0,3.2-.14,6.37-.44,9.46-34.4-9.91-43.26-24.44-43.26-43.72a45,45,0,0,1,3.55-18.06C146.45,19.12,155.51,11,168.6,6.5a81.47,81.47,0,0,1,26.54-4C236.26,2.5,252.64,24.61,254.86,47.27Z"/></g></g></g></g></svg>